<svg id="visual" viewBox="0 0 900 600" width="900" height="600" xmlns="http://www.w3.org/2000/svg" xmlns:xlink="http://www.w3.org/1999/xlink" version="1.1"><rect x="0" y="0" width="900" height="600" fill="#fff"></rect><path d="M0 266L37.5 277.3C75 288.7 150 311.3 225 309.2C300 307 375 280 450 272.8C525 265.7 600 278.3 675 286.5C750 294.7 825 298.3 862.5 300.2L900 302L900 0L862.5 0C825 0 750 0 675 0C600 0 525 0 450 0C375 0 300 0 225 0C150 0 75 0 37.5 0L0 0Z" fill="#0d0d17" stroke-linecap="round" stroke-linejoin="miter"></path></svg>