<svg id="visual" viewBox="0 0 960 540" width="960" height="540" xmlns="http://www.w3.org/2000/svg" xmlns:xlink="http://www.w3.org/1999/xlink" version="1.1"><rect x="0" y="0" width="960" height="540" fill="#FFF"></rect><path d="M0 333L22.8 336.2C45.7 339.3 91.3 345.7 137 357.7C182.7 369.7 228.3 387.3 274 381.3C319.7 375.3 365.3 345.7 411.2 331.5C457 317.3 503 318.7 548.8 320C594.7 321.3 640.3 322.7 686 328.3C731.7 334 777.3 344 823 349.3C868.7 354.7 914.3 355.3 937.2 355.7L960 356L960 541L937.2 541C914.3 541 868.7 541 823 541C777.3 541 731.7 541 686 541C640.3 541 594.7 541 548.8 541C503 541 457 541 411.2 541C365.3 541 319.7 541 274 541C228.3 541 182.7 541 137 541C91.3 541 45.7 541 22.8 541L0 541Z" fill="#9461dd"></path><path d="M0 375L22.8 383.8C45.7 392.7 91.3 410.3 137 410.7C182.7 411 228.3 394 274 388.8C319.7 383.7 365.3 390.3 411.2 390.3C457 390.3 503 383.7 548.8 390C594.7 396.3 640.3 415.7 686 419.2C731.7 422.7 777.3 410.3 823 404C868.7 397.7 914.3 397.3 937.2 397.2L960 397L960 541L937.2 541C914.3 541 868.7 541 823 541C777.3 541 731.7 541 686 541C640.3 541 594.7 541 548.8 541C503 541 457 541 411.2 541C365.3 541 319.7 541 274 541C228.3 541 182.7 541 137 541C91.3 541 45.7 541 22.8 541L0 541Z" fill="#7637d2"></path><path d="M0 417L22.8 422.7C45.7 428.3 91.3 439.7 137 439.7C182.7 439.7 228.3 428.3 274 431.8C319.7 435.3 365.3 453.7 411.2 465C457 476.3 503 480.7 548.8 481.3C594.7 482 640.3 479 686 472.7C731.7 466.3 777.3 456.7 823 449C868.7 441.3 914.3 435.7 937.2 432.8L960 430L960 541L937.2 541C914.3 541 868.7 541 823 541C777.3 541 731.7 541 686 541C640.3 541 594.7 541 548.8 541C503 541 457 541 411.2 541C365.3 541 319.7 541 274 541C228.3 541 182.7 541 137 541C91.3 541 45.7 541 22.8 541L0 541Z" fill="#5c1bb9"></path><path d="M0 483L22.8 482.5C45.7 482 91.3 481 137 476C182.7 471 228.3 462 274 459.3C319.7 456.7 365.3 460.3 411.2 460.8C457 461.3 503 458.7 548.8 457.7C594.7 456.7 640.3 457.3 686 457.5C731.7 457.7 777.3 457.3 823 468C868.7 478.7 914.3 500.3 937.2 511.2L960 522L960 541L937.2 541C914.3 541 868.7 541 823 541C777.3 541 731.7 541 686 541C640.3 541 594.7 541 548.8 541C503 541 457 541 411.2 541C365.3 541 319.7 541 274 541C228.3 541 182.7 541 137 541C91.3 541 45.7 541 22.8 541L0 541Z" fill="#4a1795"></path></svg>