<svg id="visual" viewBox="0 0 900 600" width="900" height="600" xmlns="http://www.w3.org/2000/svg" xmlns:xlink="http://www.w3.org/1999/xlink" version="1.1"><path d="M0 121L21.5 118C43 115 86 109 128.8 111C171.7 113 214.3 123 257.2 122C300 121 343 109 385.8 106C428.7 103 471.3 109 514.2 110C557 111 600 107 642.8 98C685.7 89 728.3 75 771.2 78C814 81 857 101 878.5 111L900 121L900 0L878.5 0C857 0 814 0 771.2 0C728.3 0 685.7 0 642.8 0C600 0 557 0 514.2 0C471.3 0 428.7 0 385.8 0C343 0 300 0 257.2 0C214.3 0 171.7 0 128.8 0C86 0 43 0 21.5 0L0 0Z" fill="#4a1795"></path><path d="M0 259L21.5 255C43 251 86 243 128.8 248C171.7 253 214.3 271 257.2 259C300 247 343 205 385.8 189C428.7 173 471.3 183 514.2 195C557 207 600 221 642.8 218C685.7 215 728.3 195 771.2 196C814 197 857 219 878.5 230L900 241L900 119L878.5 109C857 99 814 79 771.2 76C728.3 73 685.7 87 642.8 96C600 105 557 109 514.2 108C471.3 107 428.7 101 385.8 104C343 107 300 119 257.2 120C214.3 121 171.7 111 128.8 109C86 107 43 113 21.5 116L0 119Z" fill="#7c51b0"></path><path d="M0 463L21.5 452C43 441 86 419 128.8 417C171.7 415 214.3 433 257.2 411C300 389 343 327 385.8 303C428.7 279 471.3 293 514.2 315C557 337 600 367 642.8 373C685.7 379 728.3 361 771.2 361C814 361 857 379 878.5 388L900 397L900 239L878.5 228C857 217 814 195 771.2 194C728.3 193 685.7 213 642.8 216C600 219 557 205 514.2 193C471.3 181 428.7 171 385.8 187C343 203 300 245 257.2 257C214.3 269 171.7 251 128.8 246C86 241 43 249 21.5 253L0 257Z" fill="#a989cb"></path><path d="M0 553L21.5 554C43 555 86 557 128.8 559C171.7 561 214.3 563 257.2 554C300 545 343 525 385.8 517C428.7 509 471.3 513 514.2 518C557 523 600 529 642.8 536C685.7 543 728.3 551 771.2 546C814 541 857 523 878.5 514L900 505L900 395L878.5 386C857 377 814 359 771.2 359C728.3 359 685.7 377 642.8 371C600 365 557 335 514.2 313C471.3 291 428.7 277 385.8 301C343 325 300 387 257.2 409C214.3 431 171.7 413 128.8 415C86 417 43 439 21.5 450L0 461Z" fill="#d4c3e5"></path><path d="M0 601L21.5 601C43 601 86 601 128.8 601C171.7 601 214.3 601 257.2 601C300 601 343 601 385.8 601C428.7 601 471.3 601 514.2 601C557 601 600 601 642.8 601C685.7 601 728.3 601 771.2 601C814 601 857 601 878.5 601L900 601L900 503L878.5 512C857 521 814 539 771.2 544C728.3 549 685.7 541 642.8 534C600 527 557 521 514.2 516C471.3 511 428.7 507 385.8 515C343 523 300 543 257.2 552C214.3 561 171.7 559 128.8 557C86 555 43 553 21.5 552L0 551Z" fill="#ffffff"></path></svg>