<svg id="visual" viewBox="0 0 900 600" width="900" height="600" xmlns="http://www.w3.org/2000/svg" xmlns:xlink="http://www.w3.org/1999/xlink" version="1.1"><rect x="0" y="0" width="900" height="600" fill="#FFF"></rect><path d="M0 396L39 396L39 495L78 495L78 386L117 386L117 340L157 340L157 325L196 325L196 517L235 517L235 491L274 491L274 444L313 444L313 538L352 538L352 299L391 299L391 514L430 514L430 448L470 448L470 394L509 394L509 402L548 402L548 387L587 387L587 409L626 409L626 369L665 369L665 416L704 416L704 368L743 368L743 441L783 441L783 318L822 318L822 351L861 351L861 495L900 495L900 539L900 601L900 601L861 601L861 601L822 601L822 601L783 601L783 601L743 601L743 601L704 601L704 601L665 601L665 601L626 601L626 601L587 601L587 601L548 601L548 601L509 601L509 601L470 601L470 601L430 601L430 601L391 601L391 601L352 601L352 601L313 601L313 601L274 601L274 601L235 601L235 601L196 601L196 601L157 601L157 601L117 601L117 601L78 601L78 601L39 601L39 601L0 601Z" fill="#bc6ff1"></path><path d="M0 551L39 551L39 433L78 433L78 534L117 534L117 380L157 380L157 442L196 442L196 438L235 438L235 539L274 539L274 414L313 414L313 456L352 456L352 511L391 511L391 515L430 515L430 499L470 499L470 526L509 526L509 497L548 497L548 539L587 539L587 394L626 394L626 419L665 419L665 401L704 401L704 398L743 398L743 385L783 385L783 503L822 503L822 366L861 366L861 489L900 489L900 427L900 601L900 601L861 601L861 601L822 601L822 601L783 601L783 601L743 601L743 601L704 601L704 601L665 601L665 601L626 601L626 601L587 601L587 601L548 601L548 601L509 601L509 601L470 601L470 601L430 601L430 601L391 601L391 601L352 601L352 601L313 601L313 601L274 601L274 601L235 601L235 601L196 601L196 601L157 601L157 601L117 601L117 601L78 601L78 601L39 601L39 601L0 601Z" fill="#9f59d9"></path><path d="M0 441L39 441L39 468L78 468L78 528L117 528L117 550L157 550L157 420L196 420L196 549L235 549L235 437L274 437L274 440L313 440L313 431L352 431L352 421L391 421L391 500L430 500L430 546L470 546L470 531L509 531L509 489L548 489L548 471L587 471L587 449L626 449L626 510L665 510L665 487L704 487L704 517L743 517L743 414L783 414L783 560L822 560L822 519L861 519L861 429L900 429L900 520L900 601L900 601L861 601L861 601L822 601L822 601L783 601L783 601L743 601L743 601L704 601L704 601L665 601L665 601L626 601L626 601L587 601L587 601L548 601L548 601L509 601L509 601L470 601L470 601L430 601L430 601L391 601L391 601L352 601L352 601L313 601L313 601L274 601L274 601L235 601L235 601L196 601L196 601L157 601L157 601L117 601L117 601L78 601L78 601L39 601L39 601L0 601Z" fill="#8343c2"></path><path d="M0 507L39 507L39 517L78 517L78 470L117 470L117 518L157 518L157 534L196 534L196 504L235 504L235 459L274 459L274 541L313 541L313 511L352 511L352 490L391 490L391 464L430 464L430 539L470 539L470 474L509 474L509 465L548 465L548 518L587 518L587 506L626 506L626 565L665 565L665 497L704 497L704 506L743 506L743 464L783 464L783 518L822 518L822 496L861 496L861 566L900 566L900 556L900 601L900 601L861 601L861 601L822 601L822 601L783 601L783 601L743 601L743 601L704 601L704 601L665 601L665 601L626 601L626 601L587 601L587 601L548 601L548 601L509 601L509 601L470 601L470 601L430 601L430 601L391 601L391 601L352 601L352 601L313 601L313 601L274 601L274 601L235 601L235 601L196 601L196 601L157 601L157 601L117 601L117 601L78 601L78 601L39 601L39 601L0 601Z" fill="#672dab"></path><path d="M0 567L39 567L39 597L78 597L78 539L117 539L117 567L157 567L157 596L196 596L196 596L235 596L235 594L274 594L274 569L313 569L313 533L352 533L352 549L391 549L391 598L430 598L430 557L470 557L470 523L509 523L509 530L548 530L548 539L587 539L587 548L626 548L626 553L665 553L665 548L704 548L704 550L743 550L743 520L783 520L783 592L822 592L822 559L861 559L861 588L900 588L900 587L900 601L900 601L861 601L861 601L822 601L822 601L783 601L783 601L743 601L743 601L704 601L704 601L665 601L665 601L626 601L626 601L587 601L587 601L548 601L548 601L509 601L509 601L470 601L470 601L430 601L430 601L391 601L391 601L352 601L352 601L313 601L313 601L274 601L274 601L235 601L235 601L196 601L196 601L157 601L157 601L117 601L117 601L78 601L78 601L39 601L39 601L0 601Z" fill="#4a1795"></path></svg>