<svg id="visual" viewBox="0 0 900 600" width="900" height="600" xmlns="http://www.w3.org/2000/svg" xmlns:xlink="http://www.w3.org/1999/xlink" version="1.1"><rect x="0" y="0" width="900" height="600" fill="#FFF"></rect><path d="M0 354L39 354L39 441L78 441L78 285L117 285L117 356L157 356L157 358L196 358L196 373L235 373L235 443L274 443L274 462L313 462L313 319L352 319L352 252L391 252L391 398L430 398L430 355L470 355L470 430L509 430L509 422L548 422L548 242L587 242L587 395L626 395L626 413L665 413L665 420L704 420L704 355L743 355L743 365L783 365L783 382L822 382L822 460L861 460L861 420L900 420L900 391L900 601L900 601L861 601L861 601L822 601L822 601L783 601L783 601L743 601L743 601L704 601L704 601L665 601L665 601L626 601L626 601L587 601L587 601L548 601L548 601L509 601L509 601L470 601L470 601L430 601L430 601L391 601L391 601L352 601L352 601L313 601L313 601L274 601L274 601L235 601L235 601L196 601L196 601L157 601L157 601L117 601L117 601L78 601L78 601L39 601L39 601L0 601Z" fill="#ffffff"></path><path d="M0 405L39 405L39 306L78 306L78 344L117 344L117 321L157 321L157 309L196 309L196 286L235 286L235 461L274 461L274 322L313 322L313 445L352 445L352 371L391 371L391 318L430 318L430 437L470 437L470 296L509 296L509 427L548 427L548 371L587 371L587 350L626 350L626 345L665 345L665 325L704 325L704 399L743 399L743 406L783 406L783 382L822 382L822 477L861 477L861 393L900 393L900 341L900 601L900 601L861 601L861 601L822 601L822 601L783 601L783 601L743 601L743 601L704 601L704 601L665 601L665 601L626 601L626 601L587 601L587 601L548 601L548 601L509 601L509 601L470 601L470 601L430 601L430 601L391 601L391 601L352 601L352 601L313 601L313 601L274 601L274 601L235 601L235 601L196 601L196 601L157 601L157 601L117 601L117 601L78 601L78 601L39 601L39 601L0 601Z" fill="#d1d1d3"></path><path d="M0 470L39 470L39 496L78 496L78 502L117 502L117 348L157 348L157 414L196 414L196 503L235 503L235 421L274 421L274 384L313 384L313 348L352 348L352 387L391 387L391 498L430 498L430 491L470 491L470 504L509 504L509 364L548 364L548 388L587 388L587 496L626 496L626 464L665 464L665 373L704 373L704 474L743 474L743 383L783 383L783 446L822 446L822 366L861 366L861 392L900 392L900 334L900 601L900 601L861 601L861 601L822 601L822 601L783 601L783 601L743 601L743 601L704 601L704 601L665 601L665 601L626 601L626 601L587 601L587 601L548 601L548 601L509 601L509 601L470 601L470 601L430 601L430 601L391 601L391 601L352 601L352 601L313 601L313 601L274 601L274 601L235 601L235 601L196 601L196 601L157 601L157 601L117 601L117 601L78 601L78 601L39 601L39 601L0 601Z" fill="#a5a6a9"></path><path d="M0 474L39 474L39 376L78 376L78 456L117 456L117 527L157 527L157 446L196 446L196 468L235 468L235 427L274 427L274 461L313 461L313 428L352 428L352 439L391 439L391 502L430 502L430 509L470 509L470 406L509 406L509 421L548 421L548 509L587 509L587 530L626 530L626 406L665 406L665 514L704 514L704 454L743 454L743 472L783 472L783 412L822 412L822 448L861 448L861 471L900 471L900 465L900 601L900 601L861 601L861 601L822 601L822 601L783 601L783 601L743 601L743 601L704 601L704 601L665 601L665 601L626 601L626 601L587 601L587 601L548 601L548 601L509 601L509 601L470 601L470 601L430 601L430 601L391 601L391 601L352 601L352 601L313 601L313 601L274 601L274 601L235 601L235 601L196 601L196 601L157 601L157 601L117 601L117 601L78 601L78 601L39 601L39 601L0 601Z" fill="#7b7c81"></path><path d="M0 488L39 488L39 433L78 433L78 540L117 540L117 500L157 500L157 539L196 539L196 457L235 457L235 499L274 499L274 498L313 498L313 477L352 477L352 522L391 522L391 547L430 547L430 490L470 490L470 482L509 482L509 540L548 540L548 439L587 439L587 524L626 524L626 422L665 422L665 461L704 461L704 495L743 495L743 513L783 513L783 433L822 433L822 426L861 426L861 493L900 493L900 541L900 601L900 601L861 601L861 601L822 601L822 601L783 601L783 601L743 601L743 601L704 601L704 601L665 601L665 601L626 601L626 601L587 601L587 601L548 601L548 601L509 601L509 601L470 601L470 601L430 601L430 601L391 601L391 601L352 601L352 601L313 601L313 601L274 601L274 601L235 601L235 601L196 601L196 601L157 601L157 601L117 601L117 601L78 601L78 601L39 601L39 601L0 601Z" fill="#54545b"></path><path d="M0 533L39 533L39 501L78 501L78 542L117 542L117 497L157 497L157 480L196 480L196 533L235 533L235 528L274 528L274 566L313 566L313 501L352 501L352 514L391 514L391 485L430 485L430 530L470 530L470 516L509 516L509 486L548 486L548 486L587 486L587 534L626 534L626 575L665 575L665 524L704 524L704 539L743 539L743 468L783 468L783 569L822 569L822 477L861 477L861 545L900 545L900 492L900 601L900 601L861 601L861 601L822 601L822 601L783 601L783 601L743 601L743 601L704 601L704 601L665 601L665 601L626 601L626 601L587 601L587 601L548 601L548 601L509 601L509 601L470 601L470 601L430 601L430 601L391 601L391 601L352 601L352 601L313 601L313 601L274 601L274 601L235 601L235 601L196 601L196 601L157 601L157 601L117 601L117 601L78 601L78 601L39 601L39 601L0 601Z" fill="#2f3037"></path><path d="M0 520L39 520L39 531L78 531L78 567L117 567L117 554L157 554L157 530L196 530L196 564L235 564L235 540L274 540L274 545L313 545L313 574L352 574L352 558L391 558L391 592L430 592L430 517L470 517L470 593L509 593L509 520L548 520L548 548L587 548L587 566L626 566L626 561L665 561L665 554L704 554L704 599L743 599L743 553L783 553L783 556L822 556L822 597L861 597L861 535L900 535L900 532L900 601L900 601L861 601L861 601L822 601L822 601L783 601L783 601L743 601L743 601L704 601L704 601L665 601L665 601L626 601L626 601L587 601L587 601L548 601L548 601L509 601L509 601L470 601L470 601L430 601L430 601L391 601L391 601L352 601L352 601L313 601L313 601L274 601L274 601L235 601L235 601L196 601L196 601L157 601L157 601L117 601L117 601L78 601L78 601L39 601L39 601L0 601Z" fill="#0d0d17"></path></svg>