<svg id="visual" viewBox="0 0 900 600" width="900" height="600" xmlns="http://www.w3.org/2000/svg" xmlns:xlink="http://www.w3.org/1999/xlink" version="1.1"><rect width="900" height="600" fill="#0d0d17"></rect><g><g transform="translate(458 444)"><path d="M57.1 -19.7C64.8 5 55.3 34 34 50.4C12.7 66.7 -20.5 70.3 -42.4 55.1C-64.3 40 -75 6.1 -66 -20.3C-57.1 -46.8 -28.5 -65.7 -1.9 -65.1C24.7 -64.5 49.5 -44.3 57.1 -19.7Z" stroke="#181825" fill="none" stroke-width="20"></path></g><g transform="translate(339 164)"><path d="M60.1 -22.5C66.9 1.4 53.8 28.7 33.3 43C12.7 57.3 -15.3 58.5 -35.5 44.8C-55.7 31 -68.1 2.4 -60.9 -22C-53.7 -46.4 -26.8 -66.7 -0.1 -66.7C26.7 -66.7 53.3 -46.3 60.1 -22.5Z" stroke="#181825" fill="none" stroke-width="20"></path></g><g transform="translate(107 402)"><path d="M32.8 -9.8C37.2 2.8 31.7 19.4 20.8 27C9.9 34.5 -6.4 32.9 -17.1 24.8C-27.7 16.8 -32.7 2.3 -28.9 -9.6C-25.1 -21.4 -12.6 -30.5 0.8 -30.8C14.2 -31.1 28.5 -22.5 32.8 -9.8Z" stroke="#181825" fill="none" stroke-width="20"></path></g><g transform="translate(570 178)"><path d="M43.3 -12.8C49.7 5.6 44 29.2 28.4 41C12.7 52.9 -12.9 52.9 -30 40.6C-47.2 28.3 -55.8 3.7 -49.4 -14.7C-43 -33.1 -21.5 -45.3 -1.5 -44.8C18.4 -44.3 36.9 -31.1 43.3 -12.8Z" stroke="#181825" fill="none" stroke-width="20"></path></g><g transform="translate(678 356)"><path d="M62.9 -21.6C71.3 5.3 60.7 37.2 38.4 53.6C16.1 70 -18.1 70.9 -37.6 55.7C-57.2 40.6 -62.2 9.4 -53.5 -18C-44.9 -45.4 -22.4 -68.8 2.4 -69.6C27.3 -70.4 54.5 -48.5 62.9 -21.6Z" stroke="#181825" fill="none" stroke-width="20"></path></g><g transform="translate(773 160)"><path d="M24.5 -8.9C27.3 0.8 22.2 12.2 13.8 18.1C5.4 23.9 -6.3 24.3 -13.9 18.9C-21.5 13.4 -25 2.1 -22 -7.9C-19 -17.8 -9.5 -26.4 0.7 -26.6C10.8 -26.8 21.6 -18.7 24.5 -8.9Z" stroke="#181825" fill="none" stroke-width="20"></path></g><g transform="translate(101 109)"><path d="M43.1 -15.2C49 4.2 42.2 26.5 26.3 38.6C10.4 50.8 -14.7 52.7 -29.6 41.7C-44.4 30.6 -49.1 6.6 -42.5 -13.8C-35.9 -34.2 -18 -50.9 0.3 -51C18.6 -51.1 37.2 -34.6 43.1 -15.2Z" stroke="#181825" fill="none" stroke-width="20"></path></g></g></svg>