<svg id="visual" viewBox="0 0 900 600" width="900" height="600" xmlns="http://www.w3.org/2000/svg" xmlns:xlink="http://www.w3.org/1999/xlink" version="1.1"><rect x="0" y="0" width="900" height="600" fill="#0d0d17"></rect><g fill="#181825"><circle r="52" cx="393" cy="202"></circle><circle r="23" cx="635" cy="39"></circle><circle r="41" cx="511" cy="493"></circle><circle r="30" cx="756" cy="587"></circle><circle r="32" cx="719" cy="248"></circle><circle r="34" cx="154" cy="270"></circle><circle r="44" cx="420" cy="84"></circle><circle r="38" cx="596" cy="168"></circle><circle r="29" cx="550" cy="330"></circle><circle r="26" cx="769" cy="474"></circle><circle r="38" cx="440" cy="410"></circle><circle r="49" cx="3" cy="387"></circle><circle r="49" cx="896" cy="405"></circle><circle r="25" cx="229" cy="350"></circle><circle r="46" cx="280" cy="503"></circle><circle r="30" cx="101" cy="461"></circle><circle r="23" cx="871" cy="531"></circle><circle r="27" cx="250" cy="41"></circle></g></svg>