<svg id="visual" viewBox="0 0 900 600" width="900" height="600" xmlns="http://www.w3.org/2000/svg" xmlns:xlink="http://www.w3.org/1999/xlink" version="1.1"><path d="M0 133L129 121L257 295L386 187L514 337L643 133L771 115L900 133L900 0L771 0L643 0L514 0L386 0L257 0L129 0L0 0Z" fill="#4a1795"></path><path d="M0 277L129 385L257 343L386 271L514 451L643 319L771 493L900 367L900 131L771 113L643 131L514 335L386 185L257 293L129 119L0 131Z" fill="#672dab"></path><path d="M0 391L129 469L257 469L386 343L514 469L643 415L771 511L900 415L900 365L771 491L643 317L514 449L386 269L257 341L129 383L0 275Z" fill="#8343c2"></path><path d="M0 565L129 493L257 481L386 499L514 529L643 511L771 571L900 589L900 413L771 509L643 413L514 467L386 341L257 467L129 467L0 389Z" fill="#9f59d9"></path><path d="M0 601L129 601L257 601L386 601L514 601L643 601L771 601L900 601L900 587L771 569L643 509L514 527L386 497L257 479L129 491L0 563Z" fill="#bc6ff1"></path></svg>